<svg xmlns="http://www.w3.org/2000/svg" viewBox="0 0 1024 1024"><defs><style>.cls-1{fill:#bd8e62;}</style></defs><g id="Layer_5" data-name="Layer 5"><path class="cls-1" d="M512,17.39C238.84,17.39,17.39,238.84,17.39,512S238.84,1006.61,512,1006.61,1006.61,785.16,1006.61,512,785.16,17.39,512,17.39ZM820,820a433.95,433.95,0,1,1,93.37-138.46A434.24,434.24,0,0,1,820,820Z"/><path class="cls-1" d="M392.49,229.12l39.1,130.1a110.33,110.33,0,0,1,29-49.6L421.76,225.8a5.14,5.14,0,0,1,3.1-6.88l.18-.07a5.93,5.93,0,0,1,7.54,2.71l36.65,80.18a117.37,117.37,0,0,1,27.25-16.27l-44.76-96.11a5.13,5.13,0,0,1,3.1-6.87,5.92,5.92,0,0,1,7.54,2.71l44.41,96.37a128,128,0,0,1,33.44-6.22l-37.36-80.84a5.13,5.13,0,0,1,3.1-6.88l.18-.07a5.92,5.92,0,0,1,7.53,2.72l39.05,85A150.48,150.48,0,0,1,610,289.4L534.7,172.21c13-12.46,18.19-29,11.65-43.14-9.08-19.63-37.33-27.48-64.27-18.44a77.16,77.16,0,0,0-61-2c-20.51,8-34.88,23.69-40.73,41.68-27.73,11-42.57,36.31-33.14,56.7C354.11,222.05,372.28,230.16,392.49,229.12Z"/><path class="cls-1" d="M589.07,791.69c1.67-2.35,3.38-4.66,5-7.06,53.55-79.66,47.23-183.48-42.82-241.48-40.32-26-80.71-33.26-118.8-27.11-46.23,7.45-89.07,34.69-124.31,72.29-11.31,12.07-22.1,24.58-32.53,37.43-34.7,42.75-67,92.72-96.6,139.81,62.18,85.87,159.15,140.49,265.37,159.7C498,886.52,551.15,845,589.07,791.69Z"/><path class="cls-1" d="M678.79,570,646.4,402.87C660,396,671,398.22,685.87,399.71l6,.61-.39.38-57.09,74.06,129,93.22L872.73,440.26l36.78-42.94-88.71-65.4-34.66-25.55-70,69.74c-1.52-.94-3.08-1.83-4.61-2.66a299.68,299.68,0,0,0-32.3-15.05c-6.39-2.52-13.88-3.72-19.28-8.19-10.58-8.74-14.7-26.58-26.64-36.51-12.95-10.76-28.68-18.07-45.48-22.81-34.49-9.72-72.7-5.35-102.69,15.07-31.19,21.24-48.29,55.61-57.26,89.72s-57.2,104-65.73,138.23C471.7,435.3,732.3,578.52,607.35,784.35c-29.75,49-84.1,95.22-149,143.22,2.22-1.49,19.28,2.42,22.24,2.7,6.58.63,14.4,2.27,21,1.5,17.64-2.06,37.34-13.17,53.6-20.34a253.56,253.56,0,0,0,49-28.56A246.14,246.14,0,0,0,671.41,807a285.41,285.41,0,0,0,26.86-64.7c7.27-25.77,12-52.38,12.54-79.19a223.57,223.57,0,0,0-53.63-150.55,282.91,282.91,0,0,0-24.36-25.22c-2.55-2.35-28-22.08-28.08-23.11C607,435,619.52,413.52,646.4,402.87Zm153.16-58.21,53.76,39.63,2.9,2.13-1.91-.09-52.37-2.58ZM676.76,477.24l60.88-18.7,8.63,68.94Zm3.06-23.93,29.6-38.47L721,403.27l8.22.84a3.47,3.47,0,0,0,3.69-4.74c-.78-1.91-1.48-3.84-2.21-5.75l45.1-44.93,4.49,73.74Zm185.43-39.49L770.07,524.94l-9.21-73.54,44.37-13.63-2-32,60.26,3,5.81.28Z"/></g></svg>